<svg width="135" height="33" viewBox="0 0 135 33" fill="none" xmlns="http://www.w3.org/2000/svg">
<path d="M1 0.85H0.85V1V31.7292V31.8792H1H5.63881H5.78881V31.7292V20.5285H14.1366C17.515 20.5285 20.1572 19.6515 22.0435 17.8763C23.9285 16.1033 24.8658 13.7088 24.8658 10.7113C24.8658 7.68564 23.928 5.27711 22.0436 3.50227L22.0435 3.5022C20.1572 1.72784 17.515 0.85 14.1366 0.85H1ZM18.3679 14.7668L18.3679 14.7668C17.3935 15.6958 15.9621 16.1712 14.0495 16.1712H5.78881V5.20651H14.0495C15.9614 5.20651 17.3925 5.69009 18.367 6.63179C19.3417 7.57514 19.8391 8.92626 19.8391 10.7105C19.8391 12.495 19.3416 13.8393 18.3679 14.7668Z" fill="white" stroke="white" stroke-width="0.3"/>
<path d="M50.7487 1V0.85H50.5987H28.5748H28.4248V1V31.7292V31.8792H28.5748H50.4696H50.6196V31.7292V27.586V27.436H50.4696H33.3636V18.0254H48.9519H49.1019V17.8754V13.8181V13.6681H48.9519H33.3636V5.2932H50.5987H50.7487V5.1432V1Z" fill="white" stroke="white" stroke-width="0.3"/>
<path d="M63.4504 13.9112C64.4564 11.0957 65.3352 8.43246 66.0863 5.92143C66.5656 7.46772 67.443 10.1307 68.7171 13.9086L68.7171 13.9087L68.7179 13.9108L75.0478 31.7785L75.0832 31.8784H75.1892H80.0014H80.2162L80.1423 31.6767L68.8695 0.948339L68.8334 0.85H68.7286H63.439H63.335L63.2985 0.947469L51.8096 31.6759L51.7338 31.8784H51.9501H56.8486H56.9539L56.9896 31.7794L63.4502 13.9117L63.4504 13.9112Z" fill="white" stroke="white" stroke-width="0.3"/>
<path d="M103.24 0.85H103.179L103.135 0.89267L87.6079 16.0518V1V0.85H87.4579H82.8191H82.6691V1V31.7292V31.8792H82.8191H87.4579H87.6079V31.7292V21.8235L92.8119 16.8523L103.421 31.8159L103.465 31.8792H103.543H109.136H109.427L109.258 31.6422L96.3697 13.5345L109.24 1.10791L109.507 0.85H109.136H103.24Z" fill="white" stroke="white" stroke-width="0.3"/>
<path d="M125.322 29.1812H116.086C116.169 28.4187 116.408 27.7887 116.797 27.2845C117.235 26.7389 117.958 26.1747 118.978 25.595L118.978 25.5947L120.771 24.5645C122.298 23.7334 123.43 22.8183 124.155 21.8149C124.882 20.808 125.245 19.6426 125.245 18.3245C125.245 16.7212 124.682 15.3917 123.554 14.3479L123.554 14.3479C122.442 13.3198 120.953 12.813 119.106 12.813C117.091 12.813 115.515 13.3534 114.401 14.4544C113.286 15.5556 112.747 17.0939 112.764 19.0476L112.765 19.1963H112.914H115.568H115.718V19.0463C115.718 17.8384 116.001 16.9605 116.543 16.3844C117.082 15.8101 117.901 15.5102 119.03 15.5102C120.031 15.5102 120.789 15.7774 121.327 16.2932L121.327 16.2933L121.328 16.2947C121.882 16.8113 122.165 17.5163 122.165 18.4276C122.165 19.2751 121.938 19.9893 121.489 20.5784C121.035 21.1566 120.28 21.7374 119.211 22.3169L119.211 22.3169L119.209 22.3183L117.164 23.477C115.41 24.3979 114.234 25.5367 113.66 26.9014C113.165 28.0685 112.883 29.2881 112.815 30.5595C112.815 30.5598 112.815 30.5601 112.815 30.5604L112.739 31.7186L112.729 31.8784H112.889H125.322H125.472V31.7284V29.3312V29.1812H125.322ZM131.827 13.2254H131.705L131.68 13.3439C131.449 14.4213 131.017 15.1732 130.399 15.6256C129.792 16.0653 128.857 16.3369 127.571 16.422C127.571 16.422 127.571 16.422 127.571 16.422L127.167 16.4478L127.027 16.4567V16.5975V18.6338V18.7838H127.177H131.146V31.7284V31.8784H131.296H134H134.15V31.7284V13.3754V13.2254H134H131.827Z" fill="white" stroke="white" stroke-width="0.3"/>
</svg>
