<svg width="241" height="42" viewBox="0 0 241 42" fill="none" xmlns="http://www.w3.org/2000/svg">
<g clip-path="url(#clip0_303_164)">
<path d="M12.5798 12.6486C12.5798 11.9426 12.5445 11.2752 12.5798 10.6142C12.6729 9.14911 13.1898 7.81912 14.2076 6.77539C16.4391 4.49013 18.7332 2.2724 21.0193 0C21.061 0.0369888 21.1445 0.101317 21.2167 0.175294C23.2877 2.24506 25.365 4.30679 27.4248 6.38781C29.0301 8.01693 29.6611 9.98699 29.3512 12.2562C29.3352 12.3736 29.3239 12.491 29.3079 12.6502C29.4588 12.6389 29.5856 12.6357 29.7124 12.618C31.9295 12.3157 33.8864 12.893 35.4918 14.4626C37.651 16.5758 39.7702 18.7308 41.9133 20.8665C41.9406 20.8955 41.9615 20.9309 42.0016 20.9823C41.9374 21.0595 41.8764 21.1431 41.8042 21.2155C39.7445 23.2789 37.6912 25.3454 35.6234 27.3991C33.9876 29.0218 32.0129 29.6634 29.7317 29.3547C29.6145 29.3386 29.4957 29.3289 29.3319 29.3112C29.3448 29.4608 29.348 29.5879 29.3657 29.7133C29.6675 31.9342 29.0863 33.8946 27.5179 35.4932C25.4148 37.6466 23.27 39.755 21.1477 41.881C21.1108 41.918 21.0658 41.947 21 42.0016C20.8925 41.9003 20.7849 41.807 20.6789 41.7057C18.6754 39.7019 16.6714 37.6986 14.6668 35.6958C12.9587 33.9992 12.2924 31.9664 12.6488 29.5846C12.66 29.5074 12.6617 29.4238 12.6713 29.3016L12.1495 29.3659C10.0256 29.6248 8.12805 29.0861 6.58689 27.5889C4.39072 25.4564 2.25235 23.2676 0.0850851 21.1029C0.0538881 21.066 0.0254498 21.0267 0 20.9855C0.054583 20.9196 0.10435 20.844 0.160538 20.7813C2.23362 18.7099 4.30617 16.6402 6.37819 14.572C8.02691 12.9332 10.0144 12.3012 12.3181 12.6261C12.4128 12.6405 12.5172 12.6438 12.5798 12.6486ZM24.5046 16.0483C24.999 15.5369 25.3907 15.0834 25.8306 14.6862C27.8004 12.8962 27.969 9.71842 25.8033 7.67277C24.6185 6.55507 23.49 5.37786 22.3437 4.21994C21.9038 3.77769 21.4864 3.31291 21.0594 2.86422C19.3818 4.34538 19.096 7.18548 20.4349 9.02045C20.9583 9.73772 21.6213 10.3569 22.2554 10.9841C23.4338 12.15 24.1963 13.5202 24.4195 15.1751C24.4532 15.4131 24.4676 15.6608 24.5046 16.0483ZM17.4312 25.9678C16.9593 26.4502 16.5338 26.915 16.0924 27.3573C14.1274 29.3322 14.1129 32.1899 16.0699 34.16C17.6036 35.7039 19.1421 37.2413 20.6854 38.7724C20.7849 38.8721 20.8925 38.9637 20.9936 39.057C22.5669 37.5565 22.8928 34.8966 21.6566 33.1066C21.1317 32.3459 20.4429 31.6898 19.7831 31.0336C18.8954 30.1491 18.189 29.1585 17.8342 27.9523C17.656 27.354 17.5773 26.7108 17.4312 25.9678ZM39.0927 20.9823C37.5178 19.4047 35.9895 17.872 34.4579 16.341C34.2589 16.1432 34.0646 15.9406 33.8511 15.7589C33.3725 15.3387 32.8131 15.0211 32.2073 14.8255C31.6016 14.63 30.9624 14.5607 30.3289 14.6218C28.3784 14.7827 27.253 16.1625 25.9944 17.4877C26.1693 17.5038 26.2705 17.515 26.3716 17.5215C27.989 17.6131 29.519 18.2864 30.6805 19.4175C31.2054 19.9129 31.7079 20.4323 32.2184 20.9437C33.0748 21.8306 34.2415 22.3495 35.4725 22.3911C36.8516 22.4442 38.0492 21.9714 39.0927 20.9855V20.9823ZM16.0314 24.4882C15.8516 24.4673 15.7889 24.4545 15.7247 24.4528C14.0134 24.3745 12.395 23.6506 11.1943 22.4265C10.679 21.9199 10.1894 21.3876 9.65638 20.9035C8.38331 19.7424 6.8903 19.3291 5.20626 19.7118C4.34186 19.8942 3.55277 20.3343 2.94267 20.9743C2.966 21.0186 2.99341 21.0606 3.02454 21.0997C4.70538 22.7819 6.35089 24.5011 8.0815 26.1318C9.38828 27.3605 10.9712 27.6516 12.7002 27.1209C14.1193 26.6834 14.9397 25.503 16.0314 24.4882ZM17.2242 21.0032C17.2267 21.751 17.4505 22.4811 17.8673 23.1014C18.284 23.7217 18.875 24.2043 19.5656 24.4882C20.2561 24.7721 21.0151 24.8444 21.7467 24.6962C22.4783 24.5479 23.1496 24.1857 23.6757 23.6553C24.2018 23.1249 24.5591 22.4501 24.7024 21.7163C24.8457 20.9825 24.7686 20.2226 24.4809 19.5327C24.1931 18.8428 23.7076 18.2538 23.0857 17.8403C22.4639 17.4268 21.7336 17.2072 20.9872 17.2095C19.9866 17.2146 19.0287 17.6167 18.3234 18.3277C17.6181 19.0388 17.2229 20.0008 17.2242 21.0032ZM15.2848 22.3171C14.9525 20.598 15.2495 19.0637 16.1325 17.7225C15.4598 17.0149 14.8755 16.2751 14.1643 15.6768C13.2911 14.9416 12.1767 14.5569 11.0368 14.5973C9.8968 14.6378 8.81233 15.1003 7.9932 15.8956C7.53246 16.341 7.08616 16.801 6.63505 17.2561C6.57042 17.3319 6.51089 17.412 6.45685 17.4957C6.56923 17.5086 6.63184 17.5198 6.69445 17.5231C8.46418 17.6016 10.1346 18.3643 11.3549 19.6507C11.814 20.1155 12.2715 20.5851 12.7435 21.037C13.439 21.7154 14.3265 22.1625 15.2848 22.3171ZM22.2715 15.2667C22.2853 15.2184 22.2945 15.1689 22.2988 15.1188C22.2945 15.0525 22.2837 14.9868 22.2667 14.9226C22.0523 14.0731 21.6162 13.2961 21.0032 12.6711C20.5505 12.216 20.0962 11.7641 19.6403 11.3105C18.3897 10.0642 17.6608 8.57659 17.5404 6.7979C17.5316 6.71192 17.5176 6.62653 17.4987 6.5422C16.879 7.12276 16.1823 7.64543 15.6477 8.30158C14.5849 9.60423 14.3521 11.1031 14.8755 12.7177C15.3651 14.2311 16.6687 15.0673 17.6464 16.1738C18.316 15.7171 19.0712 15.4013 19.8661 15.2454C20.6611 15.0895 21.4794 15.0968 22.2715 15.2667ZM24.3023 25.8166C23.6315 26.2706 22.8759 26.5839 22.081 26.7376C21.2861 26.8913 20.4684 26.8821 19.6772 26.7108C19.8271 27.685 20.2825 28.5862 20.9775 29.2839C21.4592 29.7664 21.9408 30.2488 22.4224 30.7313C23.5259 31.8192 24.2307 33.2482 24.4227 34.7872C24.4548 35.0188 24.4676 35.2536 24.5014 35.6219C25.0616 35.0461 25.5384 34.5508 26.0233 34.0619C26.8474 33.2347 27.33 32.1265 27.3746 30.9586C27.4193 29.7907 27.0227 28.6489 26.2641 27.7609C25.6685 27.0758 24.9765 26.4792 24.3039 25.8166H24.3023ZM25.8274 24.2985C26.4696 24.9594 27.0571 25.6268 27.7137 26.2106C28.6005 26.992 29.7511 27.4057 30.9314 27.3675C32.1118 27.3292 33.2333 26.842 34.0678 26.0048C34.466 25.6075 34.8625 25.2119 35.2574 24.8131C35.3457 24.7246 35.418 24.6281 35.5159 24.5284C34.8641 24.4046 34.2428 24.3322 33.6472 24.1618C32.5041 23.8174 31.4683 23.185 30.6387 22.3252C29.958 21.6497 29.2629 20.9823 28.526 20.3728C28.0236 19.9579 27.3926 19.7665 26.7023 19.6507C26.8794 20.4442 26.8933 21.2656 26.7432 22.0646C26.593 22.8637 26.282 23.6238 25.829 24.2985H25.8274Z" fill="white"/>
</g>
<g clip-path="url(#clip1_303_164)">
<path d="M85.8893 9.9624C89.1173 10.08 92.2445 10.0128 95.3285 10.3512C98.5709 10.704 100.743 13.3536 100.813 16.6104C100.849 17.6238 100.755 18.6376 100.534 19.6272C99.9605 22.0128 98.0837 23.4504 95.5805 23.5632C94.9901 23.5896 94.3949 23.5632 93.6893 23.5632C94.2557 24.5232 94.7381 25.4832 95.3693 26.34C96.6461 28.1064 98.1581 28.1784 99.7493 26.5344C100.016 26.8161 100.253 27.1241 100.457 27.4536C100.728 27.9693 100.878 28.5401 100.895 29.1225C100.911 29.7049 100.795 30.2833 100.553 30.8136C100.396 31.2169 100.134 31.5712 99.7949 31.8405C99.4559 32.1098 99.0515 32.2844 98.623 32.3466C98.1945 32.4088 97.7571 32.3563 97.3555 32.1945C96.9539 32.0328 96.6023 31.7674 96.3365 31.4256C95.7303 30.6523 95.2313 29.8006 94.8533 28.8936C94.1213 27.24 93.5213 25.5336 92.8013 23.8656C92.5613 23.3256 92.1317 22.872 91.7885 22.3776L91.5965 22.4568C91.5965 23.22 91.5557 23.9856 91.5965 24.7464C91.6853 26.076 91.7837 27.408 91.9685 28.7256C92.1293 29.8752 92.5253 30.9552 93.5525 31.884H77.8517C77.8517 31.8672 77.8085 31.8144 77.8205 31.7976C78.7997 30.4944 78.6317 29.028 78.3941 27.5664C78.2549 26.724 78.0365 25.8864 77.8685 25.056C77.8037 24.732 77.6765 24.5904 77.3045 24.6336C75.966 24.7595 74.6896 25.2584 73.6205 26.0736C73.348 26.277 73.1208 26.5348 72.953 26.8306C72.7853 27.1264 72.6808 27.4537 72.6461 27.792C72.5885 28.3056 72.5189 28.8192 72.4829 29.3352C72.4253 30.2064 72.6077 31.0008 73.3205 31.596C73.3853 31.6488 73.4069 31.752 73.4861 31.9032H68.9261C68.9837 31.7616 68.9957 31.6272 69.0701 31.5672C70.7669 30.1752 71.5013 28.236 72.0221 26.2176C73.3373 21.1128 74.5925 15.9936 75.8621 10.8816C76.1405 9.7776 75.8621 9.948 77.0333 9.9384C78.3029 9.9264 78.2333 9.9552 78.5429 11.1888C79.4333 14.676 80.3213 18.1656 81.3485 21.6144C82.1261 24.2232 83.0741 26.7816 84.0341 29.3304C84.3125 30.072 84.8597 30.7248 85.3397 31.3776C85.6349 31.7808 85.9949 31.7328 86.3141 31.3248C87.0869 30.3432 87.3533 29.1792 87.4997 27.9912C87.9437 24.3912 87.8165 20.7912 87.6701 17.1912C87.5774 15.624 87.3923 14.0637 87.1157 12.5184C86.9861 11.7192 86.6933 10.9344 86.0045 10.3896C85.9637 10.3584 85.9685 10.2552 85.8893 9.9624ZM91.6493 10.9824C91.6261 11.0518 91.61 11.1234 91.6013 11.196C91.6013 13.9056 91.5749 16.6152 91.6325 19.3224C91.6561 20.0375 91.8192 20.741 92.1125 21.3936C92.6285 22.5456 93.8861 22.8336 94.8485 22.008C95.3812 21.5619 95.8021 20.9972 96.0773 20.3592C96.5137 19.296 96.7328 18.1562 96.7216 17.007C96.7105 15.8579 96.4694 14.7225 96.0125 13.668C95.663 12.8142 95.0509 12.0938 94.2647 11.611C93.4786 11.1282 92.5593 10.908 91.6397 10.9824H91.6493ZM73.2005 25.2696L73.3205 25.3584C74.4317 24.2064 75.8549 23.6784 77.4245 23.364C76.7909 21.0936 76.1741 18.8784 75.5573 16.6656L75.4253 16.6872L73.2005 25.2696Z" fill="white"/>
<path d="M219.706 10.1304C219.97 10.1088 220.121 10.0848 220.275 10.0848C222.233 10.0848 224.192 10.0848 226.15 10.0848C226.572 10.0848 226.721 10.1976 226.786 10.6344C227.331 14.2008 228.032 17.7312 229.354 21.108C229.427 21.3165 229.551 21.5037 229.714 21.6528C229.916 20.8656 230.124 20.076 230.321 19.2864C231.041 16.4064 231.747 13.5264 232.433 10.6464C232.536 10.2144 232.712 10.0776 233.153 10.0824C234.792 10.1088 236.432 10.0824 238.071 10.0968C238.244 10.0968 238.414 10.1184 238.644 10.1376C238.61 10.2834 238.56 10.425 238.496 10.56C237.663 11.8608 237.387 13.3152 237.312 14.8248C237.192 17.268 237.552 19.6728 237.917 22.0752C238.222 24.06 238.546 26.0424 238.932 28.0152C239.173 29.3377 239.773 30.5683 240.668 31.572C240.733 31.6769 240.787 31.7888 240.828 31.9056H232.995C232.995 31.8192 232.968 31.7424 232.995 31.7064C234.36 30.0096 234.365 27.9744 234.214 26.004C233.933 22.296 233.456 18.6 233.055 14.9016C233.004 14.3199 232.882 13.7467 232.69 13.1952C232.472 14.0688 232.251 14.94 232.04 15.816C230.739 21.1696 229.437 26.5248 228.135 31.8816C228.059 32.0702 227.957 32.2471 227.832 32.4072C227.688 32.2488 227.569 32.0681 227.482 31.872C226.184 26.784 224.909 21.6888 223.606 16.6008C223.282 15.336 222.872 14.0928 222.5 12.8424L222.356 12.8568C222.322 13.176 222.281 13.4928 222.257 13.8168C221.914 18.1632 221.556 22.5072 221.242 26.8584C221.153 28.0896 221.216 29.3328 221.722 30.4992C221.914 30.9528 222.176 31.3776 222.442 31.8984H218.038C218.06 31.8048 218.05 31.6896 218.103 31.632C219.454 30.1656 219.992 28.332 220.191 26.448C220.616 22.4112 220.937 18.3624 221.194 14.3112C221.254 13.3944 220.954 12.4272 220.673 11.5248C220.529 11.0376 220.085 10.6536 219.706 10.1304Z" fill="white"/>
<path d="M159.978 19.8025C163.606 20.4889 165.634 23.5921 164.955 27.2737C164.487 29.813 162.697 31.4906 160.018 31.8338C159.089 31.9525 158.152 32.0126 157.215 32.0138C155.017 32.0138 152.818 31.9826 150.62 31.9586C150.433 31.9586 150.246 31.9322 149.962 31.9106C151.71 30.1202 151.743 27.9026 151.779 25.7642C151.842 22.1234 151.779 18.4777 151.666 14.8369C151.621 13.1977 151.321 11.5825 150.058 10.3417C150.037 10.3201 150.058 10.2649 150.042 10.1545C150.18 10.1183 150.321 10.0942 150.464 10.0825C152.761 10.0825 155.062 10.0009 157.354 10.0993C158.408 10.1581 159.444 10.39 160.422 10.7857C162.205 11.4913 163.21 12.8785 163.302 14.8225C163.395 16.8673 162.452 18.3673 160.719 19.4089C160.618 19.4713 160.508 19.5193 160.402 19.5745L159.978 19.8025ZM155.643 20.7505C155.643 20.9209 155.622 21.0577 155.624 21.1921C155.648 23.7201 155.674 26.2465 155.701 28.7713C155.704 29.0498 155.724 29.3278 155.758 29.6042C155.886 30.593 156.454 31.0298 157.453 30.9074C157.861 30.8586 158.254 30.7218 158.605 30.5063C158.956 30.2908 159.255 30.0019 159.483 29.6594C159.915 29.0446 160.254 28.3693 160.489 27.6554C160.844 26.4872 160.891 25.2468 160.623 24.0554C160.1 21.485 158.518 20.4193 155.643 20.7505ZM155.718 11.0305V19.9441C156.997 19.7041 158.091 19.1545 158.653 17.9401C159.086 17.0579 159.285 16.0795 159.233 15.0982C159.181 14.1169 158.879 13.1652 158.355 12.3337C157.818 11.4289 156.949 10.9753 155.718 11.0305Z" fill="white"/>
<path d="M199.431 21.2714C199.47 18.4994 200.015 15.845 201.687 13.517C204.512 9.58095 209.749 8.43855 213.687 10.9226C215.903 12.3242 217.153 14.4146 217.719 16.9106C218.519 20.4146 218.327 23.8466 216.577 27.0602C214.976 29.981 212.538 31.7738 209.178 32.2778C205.755 32.7986 202.347 30.9026 200.735 27.5618C199.789 25.5818 199.491 23.4674 199.431 21.2714ZM214.458 24.5882C214.263 21.1586 213.558 17.9306 211.77 14.9882C210.923 13.5938 209.883 12.365 208.41 11.5898C206.521 10.601 204.839 11.2106 204.006 13.1642C203.892 13.4175 203.802 13.6811 203.737 13.9514C202.729 18.629 203.423 23.045 205.863 27.1514C206.696 28.5578 207.783 29.7914 209.319 30.4322C209.974 30.7118 210.687 30.8248 211.395 30.761C212.751 30.6002 213.455 29.561 213.779 28.361C214.095 27.1442 214.218 25.853 214.458 24.5882Z" fill="white"/>
<path d="M179.619 20.4456C179.643 18.228 180.26 15.3912 182.242 13.0416C184.592 10.2552 187.609 9.06002 191.221 9.84962C194.653 10.6008 196.741 12.9216 197.674 16.1784C198.824 20.136 198.618 24.0432 196.395 27.6336C194.593 30.5448 191.943 32.2296 188.449 32.316C184.954 32.4024 182.11 30.4224 180.692 27.06C179.982 25.3752 179.622 23.4192 179.619 20.4456ZM183.279 17.5872L183.452 17.6208C183.438 19.5934 183.728 21.5565 184.311 23.4408C185.079 25.8696 186.214 28.0872 188.254 29.7192C190.894 31.8336 193.455 30.984 194.134 27.6888C195.001 23.4792 194.266 19.4592 192.313 15.66C191.502 14.0832 190.424 12.6984 188.871 11.7648C186.752 10.4856 184.837 11.1144 184.083 13.4592C183.656 14.784 183.536 16.2072 183.279 17.5872Z" fill="white"/>
<path d="M134.692 17.7002L131.884 15.4874C132.112 15.3218 132.299 15.1898 132.481 15.0506C133.079 14.6395 133.506 14.0241 133.681 13.3202C133.933 12.1562 133.422 11.0714 132.428 10.613C131.435 10.1546 130.237 10.4786 129.491 11.429C129.116 11.9289 128.85 12.5012 128.709 13.1096C128.568 13.7179 128.554 14.349 128.67 14.9628C128.786 15.5765 129.028 16.1594 129.381 16.6745C129.735 17.1895 130.191 17.6255 130.722 17.9546C131.046 18.1466 131.406 18.2738 131.742 18.4514C131.85 18.5066 131.982 18.6194 131.996 18.7178C132.011 18.8162 131.86 18.9578 131.756 18.9794C129.145 19.5122 128.358 21.449 128.094 23.7458C127.857 25.4552 128.129 27.1967 128.876 28.7522C130.033 31.0706 132.349 32.0018 134.636 31.0826C135.741 30.6199 136.638 29.7671 137.155 28.6865C137.672 27.6058 137.775 26.3728 137.442 25.2218C137.168 24.3554 136.684 23.6666 135.733 23.4794C134.783 23.2922 134.118 23.7698 133.549 24.4394C133.369 24.6506 133.213 24.881 132.988 25.1834C132.841 24.9938 132.654 24.8546 132.611 24.6794C132.436 24.0254 132.499 23.3305 132.788 22.7184C133.077 22.1063 133.574 21.6165 134.19 21.3362C134.868 21.0546 135.572 20.8392 136.292 20.693C137.252 20.4722 138.198 20.2538 138.956 19.5674C139.223 19.3407 139.44 19.0616 139.594 18.7474C139.748 18.4331 139.836 18.0906 139.852 17.741C139.902 16.697 139.328 15.9794 138.193 15.641C138.616 14.393 140.185 14.2514 141.1 14.7218C142.595 15.4874 143.02 17.429 141.973 18.8834C141.229 19.9178 140.152 20.465 138.968 20.837C138.616 20.9474 138.248 21.0338 137.896 21.1322C137.927 21.2138 137.929 21.2666 137.951 21.2786C140.502 22.4978 140.951 25.325 140.015 27.5834C139.004 30.0218 137.041 31.3922 134.564 32.021C132.158 32.6509 129.606 32.4051 127.364 31.3274C124.724 30.0914 123.4 27.7274 123.587 24.725C123.748 22.1762 125.612 19.7858 128.111 18.9266C128.37 18.8378 128.634 18.7562 128.958 18.6482C128.857 18.569 128.809 18.5018 128.749 18.4898C127.055 18.149 125.951 17.1362 125.543 15.4826C125.106 13.7114 125.596 12.1562 127.002 10.961C129.008 9.25459 132.786 9.15139 134.922 10.6994C136.41 11.777 136.926 13.4666 136.295 15.2594C135.966 16.191 135.416 17.0287 134.692 17.7002V17.7002Z" fill="white"/>
<path d="M65.9741 24.6528C66.9557 24.0072 68.0645 24.0096 68.9045 24.6528C69.7445 25.296 69.9989 26.3928 69.5693 27.5784C69.1541 28.7256 68.3693 29.5848 67.4093 30.3096C63.4973 33.2736 56.7629 32.9328 53.1773 29.5944C51.2333 27.7872 50.2829 25.5144 50.1773 22.9056C49.9973 18.5448 51.3773 14.796 54.9581 12.12C58.0781 9.78479 61.6349 9.06959 65.4509 9.98639C66.2087 10.144 66.9233 10.4645 67.5449 10.9257C68.1665 11.387 68.6804 11.9779 69.0509 12.6576C70.0445 14.484 69.4445 16.4976 67.6709 17.3256C67.0013 17.64 66.9317 17.5968 66.7493 16.8936C66.3903 15.3478 65.5641 13.9501 64.3829 12.8904C60.9485 9.89759 56.1485 11.2848 54.7901 15.6936C53.7509 19.0704 54.2357 22.3464 55.6733 25.512C56.4845 27.2976 57.5717 28.908 59.2469 29.9832C60.0379 30.5158 60.93 30.8801 61.8677 31.0536C64.7117 31.4832 66.7949 29.2848 66.3581 26.4432C66.2693 25.8648 66.1133 25.2936 65.9741 24.6528Z" fill="white"/>
<path d="M115.75 31.9298H102.01C102.054 31.7834 102.054 31.649 102.118 31.5818C102.982 30.7154 103.33 29.6138 103.465 28.4618C103.653 27.0008 103.763 25.5306 103.794 24.0578C103.818 21.1778 103.794 18.3194 103.666 15.4562C103.611 14.2226 103.287 12.9866 102.946 11.789C102.79 11.2274 102.33 10.7498 101.96 10.157H115.988C115.554 12.317 115.119 14.4626 114.687 16.6058C114.649 16.505 114.57 16.3274 114.512 16.1426C114.272 15.3242 114.032 14.4962 113.766 13.6874C113.214 12.0866 112.11 11.1218 110.382 11.0066C109.513 10.9466 108.639 11.0066 107.653 11.0066V20.1578C108.471 19.7474 109.333 19.241 110.271 18.8666C110.816 18.6747 111.393 18.5852 111.97 18.6026C113.41 18.6026 114.186 19.9586 113.466 21.1994C113.226 21.629 112.801 21.965 112.388 22.4258C112.227 22.1306 112.148 21.9626 112.047 21.7946C111.847 21.4243 111.562 21.1064 111.216 20.8664C110.871 20.6264 110.473 20.471 110.056 20.4128C109.639 20.3547 109.215 20.3953 108.816 20.5316C108.418 20.6678 108.057 20.8957 107.763 21.197C107.626 21.3566 107.55 21.56 107.55 21.7706C107.578 24.281 107.62 26.7906 107.674 29.2994C107.687 29.5784 107.725 29.8556 107.79 30.1274C107.938 30.8162 108.294 31.0874 109.016 31.0874C111.303 31.1018 113.005 30.1586 113.869 27.9962C114.315 26.8778 114.618 25.7018 114.961 24.6362C115.222 26.9738 115.484 29.4266 115.75 31.9298Z" fill="white"/>
<path d="M178.342 22.6369C178.582 25.7137 178.837 28.7929 179.089 31.9129H165.838C165.85 31.8121 165.824 31.6729 165.874 31.6345C167.158 30.3697 167.424 28.7017 167.46 27.0601C167.549 23.1001 167.54 19.1401 167.46 15.1801C167.436 14.0281 167.084 12.8665 166.76 11.7457C166.599 11.1889 166.157 10.7113 165.8 10.1377H173.153C173.139 10.2481 173.153 10.3273 173.124 10.3585C171.953 11.5129 171.752 13.0369 171.62 14.5369C171.26 18.6169 171.38 22.6969 171.519 26.7769C171.548 27.5737 171.567 28.3705 171.608 29.1769C171.621 29.5149 171.667 29.8509 171.744 30.1801C171.924 30.8785 172.289 31.1401 173.009 31.0921C173.56 31.0729 174.099 30.9235 174.581 30.6561C175.064 30.3888 175.476 30.011 175.784 29.5537C176.708 28.2625 177.14 26.7697 177.555 25.2745C177.795 24.3985 178.013 23.5153 178.241 22.6345L178.342 22.6369Z" fill="white"/>
</g>
<defs>
<clipPath id="clip0_303_164">
<rect width="42" height="42" fill="white"/>
</clipPath>
<clipPath id="clip1_303_164">
<rect width="190.668" height="22.7976" fill="white" transform="translate(50.1608 9.6001)"/>
</clipPath>
</defs>
</svg>
