<svg width="3687" height="3267" viewBox="0 0 3687 3267" fill="none" xmlns="http://www.w3.org/2000/svg">
<path d="M2963.74 1403.3L2855.67 1539.48C2593.42 1860.71 2253.97 2176.83 1940.26 2176.83C1773.15 2176.83 1701.07 2084.3 1701.07 1937.76C1701.07 1745.02 1824.51 1457.19 2014.79 1166.8C2899.34 1117.92 3686.2 462.645 3686.2 156.776C3686.2 61.686 3611.67 0 3439.32 0C3115.36 0 2806.77 113.128 2534.16 290.392C2382.42 210.779 2179.33 146.532 1927.33 146.532C1333.32 146.532 1050.47 395.837 1050.47 650.264C1050.47 876.409 1276.73 1105.11 1716.44 1159.12C1582.76 1395.51 1505.56 1629.45 1505.56 1817.06C1505.56 2061.25 1634.12 2230.83 1929.9 2230.83C2145.91 2230.83 2341.32 2125.49 2510.99 1978.96L2102.13 2495.5C2004.43 2618.87 1538.98 3210.01 1112.18 3210.01C862.749 3210.01 819.078 3104.68 819.078 3035.31C819.078 2983.87 780.532 2953.02 741.986 2953.02C703.44 2953.02 664.894 2983.87 664.894 3035.31C664.894 3117.59 757.471 3266.57 1112.3 3266.57C1688.26 3266.57 2192.26 2711.4 2359.36 2495.5L3218.18 1403.19H2963.62L2963.74 1403.3ZM2660.27 424.119C2783.7 508.965 2845.42 583.456 2845.42 583.456L2873.72 552.613C2873.72 552.613 2814.56 478.122 2698.81 393.276C2945.69 187.73 3205.37 51.4421 3431.64 51.4421C3562.76 51.4421 3619.35 100.212 3619.35 177.375C3619.35 444.607 2904.47 1053.78 2053.33 1110.35C2220.44 863.604 2433.89 616.86 2660.16 424.119H2660.27ZM1194.62 688.79C1194.62 449.729 1467.23 197.863 1930.01 197.863C2153.71 197.863 2341.43 251.866 2485.47 321.235C2176.88 531.903 1919.76 817.284 1747.53 1105.11C1366.97 1064.03 1194.62 878.97 1194.62 688.79Z" fill="black"/>
<path d="M1631.81 306.208C1555.81 330.15 1487.7 363.445 1430.72 405.426C1367.96 451.75 1321.11 506.649 1293.29 564.665H1631.81V306.208Z" fill="black"/>
<path d="M1406.57 921.084H1402C1403.56 922.086 1405.01 923.2 1406.57 924.202V921.084Z" fill="black"/>
<path d="M1728.91 2193.79L1631.87 1813.73H1508.01C1508.01 1813.73 1508.01 1814.62 1508.01 1815.07C1508.01 1993.46 1576.67 2131.99 1728.8 2193.68L1728.91 2193.79Z" fill="black"/>
<path d="M1560.74 2159.6C1481.51 2075.86 1441.33 1960.05 1441.33 1815.17C1441.33 1814.73 1441.33 1814.28 1441.33 1813.84H502.331V1362.96H1406.61V1149.71C1259.72 1092.47 1153.33 1011.52 1084.45 921.209H502.331V564.758H995.202C1020.57 440.931 1102.59 329.463 1232.46 244.944C1314.14 191.827 1412.96 151.071 1525.91 122.898H0V2255.48H1702.96C1647.54 2232.87 1599.91 2200.91 1560.74 2159.49V2159.6Z" fill="black"/>
<path d="M1406.61 1077.2V1002.82C1363.77 978.544 1327.82 950.927 1298.44 921.084H1172.03C1229.56 981.662 1307.9 1035.34 1406.61 1077.2Z" fill="black"/>
<path d="M1063.93 564.668H1220.84C1274.03 426.03 1416.7 298.527 1631.92 236.168V168.575C1294.06 227.705 1108.11 388.169 1063.93 564.668Z" fill="black"/>
</svg>
